<svg xmlns="http://www.w3.org/2000/svg" viewBox="0 0 512 512"><defs><style>.a{fill:#f8b219;}.b{fill:#b1a7a7;}.c{fill:#231f20;}</style></defs><path class="a" d="M420.65,175.71A195.52,195.52,0,0,0,385.5,138a159.36,159.36,0,0,0-78.28-39.24,195.28,195.28,0,0,0-46.51-5.58c-108.36,0-196.2,87.85-196.2,196.2A196.19,196.19,0,0,0,175,465.84C81.47,443.43,12,359.31,12,258.94,12,141.41,107.26,46.16,224.78,46.16A212.78,212.78,0,0,1,420.65,175.71Z"/><path class="b" d="M412.64,342A137.05,137.05,0,0,1,385.53,400a171.87,171.87,0,0,1-29,26l-.11.08a172.73,172.73,0,1,1-181.8-293A160.26,160.26,0,1,0,412.64,342Z"/><path class="c" d="M272.1,299.78a35.14,35.14,0,0,1-5.88,20.16,38.26,38.26,0,0,1-16.78,13.47q-10.91,4.77-25.31,4.77-22,0-34.78-12.13t-12.83-33.53h25.12q.18,11.09,6.86,17.58t17,6.49q9,0,14.85-5.15t5.88-13.95q0-8-5.79-12.61t-16.7-4.58H211.66v-22h10.72q10.19,0,15.72-4.87t5.54-13.09q0-7.83-5.1-12.23c-3.39-2.93-7.85-4.39-13.35-4.39q-9,0-14.76,5.35t-6,14.52H179.68q.18-19.31,12.21-30.38t32.24-11.08q21.27,0,33.13,9.74t11.86,26q0,11.84-6.59,19.29A34.31,34.31,0,0,1,245,267.5a40,40,0,0,1,19.51,11Q272.09,286.41,272.1,299.78Z"/><path class="c" d="M284.23,271.51q0-22,6.15-37.64T308,210.09Q319.37,202,334.83,202q17.57,0,29.7,10.51t14.23,28.46H353.81q-1.76-8-7.21-12.41t-13.7-4.4a20.52,20.52,0,0,0-18.36,10q-6.42,10-6.42,28.56V266l1.59-2.87a31.5,31.5,0,0,1,12-11.46,34.64,34.64,0,0,1,17-4.2,40.86,40.86,0,0,1,21.7,5.73,39.49,39.49,0,0,1,14.67,16,50.83,50.83,0,0,1,5.27,23.59q0,13.57-5.71,23.88a39.58,39.58,0,0,1-16.17,16,49.81,49.81,0,0,1-24,5.63,46.19,46.19,0,0,1-22.58-5.44,45.27,45.27,0,0,1-16.43-15.57,68.39,68.39,0,0,1-8.34-20.25A104.78,104.78,0,0,1,284.23,271.51Zm50.43-2.68a19.3,19.3,0,0,0-15.2,6.69q-5.9,6.69-5.89,17.19t5.71,17.2a20.23,20.23,0,0,0,30.13-.1q5.8-6.78,5.8-17.1,0-10.5-5.62-17.19A18.54,18.54,0,0,0,334.66,268.83Z"/><path class="c" d="M399.05,232.73Q405.47,218,417,210.09a47.76,47.76,0,0,1,52.71,0q11.51,7.93,17.92,22.64T494,267.12v6.11q0,20.06-6.41,34.67t-17.92,22.45a48.42,48.42,0,0,1-52.8,0q-11.43-7.83-17.84-22.45t-6.41-34.67v-6.11Q392.64,247.44,399.05,232.73Zm44.19-7.26q-11.42,0-18.36,11.17t-6.94,31.43v4.2q0,20.25,6.94,31.43t18.36,11.18q11.6,0,18.54-11.18t6.94-31.43v-4.2q0-20.25-6.94-31.43T443.24,225.47Z"/></svg>