<svg xmlns="http://www.w3.org/2000/svg" viewBox="0 0 331.25 193.38"><defs><style>.a{fill:#f8b219;}.b{fill:#b1a7a7;}.c{fill:#231f20;}</style></defs><path class="a" d="M188.3,59.69A90.3,90.3,0,0,0,172.1,42.3,73.41,73.41,0,0,0,136,24.22,90.41,90.41,0,0,0,75.09,193.38,98.05,98.05,0,1,1,188.3,59.69Z"/><path class="b" d="M184.61,136.31a63.26,63.26,0,0,1-12.49,26.75,79.21,79.21,0,0,1-13.36,12s0,0,0,0a80.64,80.64,0,0,1-15.07,8.41A79.6,79.6,0,0,1,74.94,40.07a73.85,73.85,0,1,0,109.67,96.24Z"/><path class="c" d="M88.8,75.76a27.5,27.5,0,0,1,14.78-3.88,24.81,24.81,0,0,1,11.9,2.82,22.52,22.52,0,0,1,8.5,7.92,26.45,26.45,0,0,1,3.89,11.8H115.72a14.68,14.68,0,0,0-4.41-8.32,12,12,0,0,0-8.38-3,12.57,12.57,0,0,0-10.77,5.55q-4,5.53-4,14.61t4,14.57a12.53,12.53,0,0,0,10.77,5.59,12,12,0,0,0,8.38-3,14.68,14.68,0,0,0,4.41-8.32h12.15a26.45,26.45,0,0,1-3.89,11.8,22.52,22.52,0,0,1-8.5,7.92,24.81,24.81,0,0,1-11.9,2.82,27.58,27.58,0,0,1-14.78-3.87,25.31,25.31,0,0,1-9.63-11,38.17,38.17,0,0,1-3.36-16.51,38.1,38.1,0,0,1,3.36-16.5A25.2,25.2,0,0,1,88.8,75.76Z"/><path class="c" d="M171.75,76.64q5.43,4.22,5.42,12a14,14,0,0,1-2.91,9.24,13.78,13.78,0,0,1-8.26,4.58q6.31.87,9.76,4.4t3.44,9.86q0,8.1-5.67,12.72t-16,4.62H134.91V72.41h21.54Q166.32,72.41,171.75,76.64Zm-15,21.12a8.58,8.58,0,0,0,6.07-2,7.9,7.9,0,0,0,0-10.92,8.58,8.58,0,0,0-6.07-2h-9.71v15Zm.81,25.79q4.38,0,6.76-2a7,7,0,0,0,2.39-5.63A7.27,7.27,0,0,0,164.3,110a10,10,0,0,0-6.72-2.07H147.06v15.58Z"/><path class="c" d="M229,116.87a16.13,16.13,0,0,1-2.71,9.28,17.64,17.64,0,0,1-7.73,6.21,29,29,0,0,1-11.66,2.2q-10.12,0-16-5.59T185,113.52h11.57a11.08,11.08,0,0,0,3.16,8.1,10.82,10.82,0,0,0,7.86,3,10,10,0,0,0,6.84-2.38,8.08,8.08,0,0,0,2.71-6.42,7,7,0,0,0-2.67-5.81c-1.78-1.41-4.35-2.11-7.69-2.11h-5.59V97.76h4.94q4.69,0,7.24-2.24a7.64,7.64,0,0,0,2.55-6,7.06,7.06,0,0,0-2.34-5.64,9.11,9.11,0,0,0-6.16-2,9.65,9.65,0,0,0-6.8,2.46A8.91,8.91,0,0,0,197.82,91H186.4q.09-8.88,5.63-14t14.86-5.11q9.8,0,15.26,4.49a14.72,14.72,0,0,1,5.46,12,12.92,12.92,0,0,1-3,8.89,15.83,15.83,0,0,1-8.06,4.76,18.36,18.36,0,0,1,9,5.06Q229,110.71,229,116.87Z"/><path class="c" d="M234.58,103.84a47.53,47.53,0,0,1,2.83-17.35,23.5,23.5,0,0,1,8.1-10.95,20.77,20.77,0,0,1,12.38-3.75,20.18,20.18,0,0,1,13.69,4.85,19.63,19.63,0,0,1,6.55,13.11H266.64A9.21,9.21,0,0,0,257,82a9.46,9.46,0,0,0-8.46,4.62q-3,4.62-2.95,13.16v1.49l.73-1.32a14.5,14.5,0,0,1,5.54-5.28,16,16,0,0,1,7.82-1.94,18.8,18.8,0,0,1,10,2.65,18.13,18.13,0,0,1,6.76,7.35,23.37,23.37,0,0,1,2.43,10.87,22.29,22.29,0,0,1-2.63,11,18.19,18.19,0,0,1-7.45,7.35,22.92,22.92,0,0,1-11,2.6,21.31,21.31,0,0,1-10.4-2.51,20.77,20.77,0,0,1-7.57-7.18,31.34,31.34,0,0,1-3.85-9.33A48.44,48.44,0,0,1,234.58,103.84Zm23.23-1.24a8.89,8.89,0,0,0-7,3.09,11.52,11.52,0,0,0-2.71,7.92,11.72,11.72,0,0,0,2.63,7.92,9.32,9.32,0,0,0,13.88,0,11.67,11.67,0,0,0,2.68-7.88,11.86,11.86,0,0,0-2.6-7.92A8.52,8.52,0,0,0,257.81,102.6Z"/><path class="c" d="M287.49,86a23.83,23.83,0,0,1,8.25-10.43,22,22,0,0,1,24.29,0A23.78,23.78,0,0,1,328.29,86a39.37,39.37,0,0,1,3,15.84v2.82a39.57,39.57,0,0,1-3,16A23.57,23.57,0,0,1,320,131a22.3,22.3,0,0,1-24.33,0,23.68,23.68,0,0,1-8.21-10.34,39.57,39.57,0,0,1-3-16v-2.82A39.37,39.37,0,0,1,287.49,86Zm20.36-3.35q-5.27,0-8.46,5.15t-3.2,14.48v1.94q0,9.33,3.2,14.48t8.46,5.15q5.34,0,8.54-5.15t3.2-14.48v-1.94q0-9.33-3.2-14.48T307.85,82.62Z"/></svg>