<svg xmlns="http://www.w3.org/2000/svg" viewBox="0 0 504 504"><defs><style>.a{fill:#333132;}.b{fill:#f8b219;}.c{fill:#b1a7a7;}.d{fill:#f1f2f2;}</style></defs><rect class="a" width="504" height="504" rx="121.33"/><path class="b" d="M402.46,172.61a176.51,176.51,0,0,0-31.69-34,143.73,143.73,0,0,0-70.59-35.38,176.92,176.92,0,0,0-119.25,331A191.89,191.89,0,0,1,34,247.65c0-106,85.89-191.85,191.85-191.85A191.86,191.86,0,0,1,402.46,172.61Z"/><path class="c" d="M395.23,322.53a123.64,123.64,0,0,1-24.44,52.34,154.12,154.12,0,0,1-26.14,23.45s-.07.05-.1.08A155.75,155.75,0,1,1,180.63,134.21a144.5,144.5,0,1,0,214.6,188.32Z"/><path class="d" d="M268.52,284.48a31.69,31.69,0,0,1-5.3,18.17,34.46,34.46,0,0,1-15.13,12.14,56.44,56.44,0,0,1-22.82,4.31q-19.8,0-31.37-10.94t-11.56-30.23H205q.16,10,6.18,15.85t15.37,5.86A19.58,19.58,0,0,0,239.93,295q5.31-4.67,5.31-12.58A13.73,13.73,0,0,0,240,271q-5.23-4.12-15-4.13H214V247.1h9.67q9.18,0,14.18-4.39t5-11.8q0-7.07-4.6-11t-12-4q-8.07,0-13.3,4.82t-5.39,13.09H185.19q.15-17.4,11-27.39t29.07-10q19.17,0,29.87,8.79t10.69,23.42q0,10.68-5.94,17.4a30.92,30.92,0,0,1-15.76,9.3,36,36,0,0,1,17.58,9.9Q268.52,272.43,268.52,284.48Z"/><path class="d" d="M279.45,259q0-19.81,5.55-33.93t15.84-21.45q10.31-7.32,24.24-7.32,15.84,0,26.78,9.47t12.83,25.67h-22.5a18,18,0,0,0-18.85-15.16,18.55,18.55,0,0,0-16.56,9q-5.77,9-5.78,25.75V254l1.42-2.58a28.5,28.5,0,0,1,10.86-10.34,31.26,31.26,0,0,1,15.29-3.79,36.86,36.86,0,0,1,19.56,5.17,35.58,35.58,0,0,1,13.23,14.38,45.79,45.79,0,0,1,4.75,21.28A43.78,43.78,0,0,1,361,299.64,35.74,35.74,0,0,1,346.39,314a44.82,44.82,0,0,1-21.63,5.08,41.63,41.63,0,0,1-20.35-4.91,40.74,40.74,0,0,1-14.82-14,61.63,61.63,0,0,1-7.52-18.26A94.35,94.35,0,0,1,279.45,259Zm45.47-2.41a17.4,17.4,0,0,0-13.7,6q-5.31,6-5.31,15.51t5.15,15.5a18.23,18.23,0,0,0,27.17-.09q5.24-6.12,5.23-15.41,0-9.48-5.07-15.51A16.71,16.71,0,0,0,324.92,256.58Z"/><path class="d" d="M383,224q5.79-13.26,16.16-20.41a43.07,43.07,0,0,1,47.53,0q10.38,7.15,16.16,20.41t5.79,31v5.51q0,18.07-5.79,31.26T446.67,312a43.65,43.65,0,0,1-47.6,0Q388.77,305,383,291.8t-5.78-31.26V255Q377.2,237.28,383,224Zm39.85-6.54q-10.31,0-16.56,10.07T400,255.89v3.79q0,18.26,6.25,28.33t16.56,10.08q10.46,0,16.71-10.08t6.26-28.33v-3.79q0-18.27-6.26-28.34T422.83,217.48Z"/></svg>